<mxfile host="Electron" modified="2024-06-23T18:17:28.454Z" agent="Mozilla/5.0 (X11; Linux x86_64) AppleWebKit/537.36 (KHTML, like Gecko) draw.io/24.6.1 Chrome/124.0.6367.207 Electron/30.0.6 Safari/537.36" etag="J2iCZrCQNyhqfibBESt6" version="24.6.1" type="device">
  <diagram name="Page-1" id="vVJTJihIjDBYve6A6j79">
    <mxGraphModel dx="1715" dy="834" grid="1" gridSize="10" guides="1" tooltips="1" connect="1" arrows="1" fold="1" page="1" pageScale="1" pageWidth="500" pageHeight="500" background="#ffffff" math="0" shadow="0">
      <root>
        <mxCell id="0" />
        <mxCell id="1" parent="0" />
        <mxCell id="RYNpQwTxYm0rjckXWOT_-19" value="" style="ellipse;whiteSpace=wrap;html=1;aspect=fixed;strokeColor=#6bff90;fillColor=none;strokeWidth=13;movable=0;resizable=0;rotatable=0;deletable=0;editable=0;locked=1;connectable=0;" parent="1" vertex="1">
          <mxGeometry x="10" y="10" width="980" height="980" as="geometry" />
        </mxCell>
        <mxCell id="5b3JyqTlPFVikgz2Kmae-1" value="&lt;font style=&quot;font-size: 500px;&quot; face=&quot;JetBrains Mono&quot;&gt;0&lt;/font&gt;" style="text;strokeColor=none;align=center;fillColor=none;html=1;verticalAlign=middle;whiteSpace=wrap;rounded=0;fontColor=#6bff90;" vertex="1" parent="1">
          <mxGeometry x="470" y="485" width="60" height="30" as="geometry" />
        </mxCell>
      </root>
    </mxGraphModel>
  </diagram>
</mxfile>
